<svg width="25" height="33" viewBox="0 0 25 33" fill="none" xmlns="http://www.w3.org/2000/svg">
<path d="M12.4848 32.9165L2.31074 30.2726L0.043457 6.46875H24.9565L22.6869 30.269L12.4848 32.9165Z" fill="#264DE4"/>
<path d="M20.7438 28.7535L22.6833 8.41504H12.5V30.8928L20.7438 28.7535Z" fill="#2965F1"/>
<path d="M5.24116 17.244L5.52065 20.1634H12.5V17.244H5.24116ZM4.67944 11.335L4.96294 14.2544H12.5V11.335H4.67944ZM12.5 24.8261L12.4864 24.8295L9.01294 23.9516L8.79087 21.6232H5.66001L6.09692 26.2072L12.4857 27.8672L12.5 27.8636V24.8261Z" fill="#EBEBEB"/>
<path d="M19.7391 17.244L20.3021 11.335H12.4894V14.2544H16.8841L16.6003 17.244H12.4894V20.1634H16.3299L15.9678 23.9497L12.4893 24.8286V27.8659L18.8831 26.2072L18.93 25.7139L19.663 18.0279L19.7391 17.244Z" fill="white"/>
</svg>
