<svg width="12" height="19" viewBox="0 0 12 19" fill="none" xmlns="http://www.w3.org/2000/svg">
<g clip-path="url(#clip0_75_382)">
<path d="M3 18.9998C4.656 18.9998 6 17.5812 6 15.8332V12.6665H3C1.344 12.6665 0 14.0852 0 15.8332C0 17.5812 1.344 18.9998 3 18.9998Z" fill="#0ACF83"/>
<path d="M0 9.50016C0 7.75216 1.344 6.3335 3 6.3335H6V12.6668H3C1.344 12.6668 0 11.2482 0 9.50016Z" fill="#A259FF"/>
<path d="M0 3.16667C0 1.41867 1.344 0 3 0H6V6.33333H3C1.344 6.33333 0 4.91467 0 3.16667Z" fill="#F24E1E"/>
<path d="M6 0H9C10.656 0 12 1.41867 12 3.16667C12 4.91467 10.656 6.33333 9 6.33333H6V0Z" fill="#FF7262"/>
<path d="M12 9.50016C12 11.2482 10.656 12.6668 9 12.6668C7.344 12.6668 6 11.2482 6 9.50016C6 7.75216 7.344 6.3335 9 6.3335C10.656 6.3335 12 7.75216 12 9.50016Z" fill="#1ABCFE"/>
</g>
<defs>
<clipPath id="clip0_75_382">
<rect width="12" height="19" fill="white"/>
</clipPath>
</defs>
</svg>
