<svg width="25" height="25" viewBox="0 0 25 25" fill="none" xmlns="http://www.w3.org/2000/svg">
<g clip-path="url(#clip0_75_378)">
<path d="M24.3626 11.4018L13.5978 0.637305C12.9783 0.0173828 11.9728 0.0173828 11.3523 0.637305L9.11713 2.87285L11.9527 5.7084C12.6119 5.48594 13.3673 5.63516 13.8925 6.16035C14.4204 6.68887 14.5685 7.45078 14.3406 8.11211L17.0734 10.8451C17.7345 10.6172 18.4976 10.7645 19.0253 11.2934C19.7636 12.0311 19.7636 13.227 19.0253 13.965C18.8499 14.1406 18.6416 14.2798 18.4123 14.3748C18.183 14.4698 17.9373 14.5187 17.6891 14.5187C17.4409 14.5187 17.1952 14.4698 16.9659 14.3748C16.7366 14.2798 16.5283 14.1406 16.3529 13.965C16.0893 13.7012 15.9097 13.3654 15.8366 12.9998C15.7634 12.6341 15.8 12.255 15.9417 11.9102L13.3933 9.36172L13.3929 16.0689C13.5778 16.16 13.7466 16.2806 13.8927 16.426C14.6306 17.1637 14.6306 18.3592 13.8927 19.0984C13.1546 19.8361 11.9583 19.8361 11.221 19.0984C10.4831 18.3594 10.4831 17.1639 11.221 16.426C11.398 16.2491 11.6082 16.109 11.8396 16.0139V9.24453C11.608 9.14976 11.3976 9.00957 11.221 8.83223C10.6621 8.27363 10.5275 7.45332 10.8142 6.7666L8.01869 3.97109L0.637442 11.352C0.339652 11.6498 0.172363 12.0538 0.172363 12.475C0.172363 12.8962 0.339652 13.3002 0.637442 13.598L11.4025 24.3625C12.0224 24.9824 13.0275 24.9824 13.6484 24.3625L24.3628 13.648C24.6606 13.3501 24.8278 12.9461 24.8277 12.5249C24.8277 12.1036 24.6604 11.6997 24.3626 11.4018Z" fill="#F34F29"/>
</g>
<defs>
<clipPath id="clip0_75_378">
<rect width="25" height="25" fill="white"/>
</clipPath>
</defs>
</svg>
