<svg width="25" height="33" viewBox="0 0 25 33" fill="none" xmlns="http://www.w3.org/2000/svg">
<path d="M24.9565 6.46875L22.6869 30.269L12.4848 32.9165L2.31074 30.2726L0.043457 6.46875H24.9565Z" fill="#E44D26"/>
<path d="M12.5 30.8928L20.7438 28.7535L22.6833 8.41504H12.5V30.8928Z" fill="#F16529"/>
<path d="M8.07036 14.2544H12.4825V11.335H4.66187L4.73647 12.1182L5.50308 20.1634H12.4825V17.244H8.35542L8.07036 14.2544ZM8.77329 21.6232H5.64243L6.07935 26.2072L12.4681 27.8672L12.4825 27.8636V24.8261L12.4688 24.8295L8.99536 23.9516L8.77329 21.6232Z" fill="#EBEBEB"/>
<path d="M12.4894 20.1634H16.3299L15.9678 23.9497L12.4893 24.8286V27.8659L18.8831 26.2072L18.93 25.7139L19.663 18.0279L19.7391 17.244H12.4894V20.1634ZM12.4894 14.2473V14.2544H20.0229L20.0854 13.5982L20.2275 12.1182L20.3021 11.335H12.4894V14.2473Z" fill="white"/>
</svg>
