<svg width="23" height="22" viewBox="0 0 23 22" fill="none" xmlns="http://www.w3.org/2000/svg">
<path fill-rule="evenodd" clip-rule="evenodd" d="M16.1293 0.102051H6.4303C3.08241 0.102051 0.368408 2.70569 0.368408 5.91743V15.222C0.368408 18.4337 3.08241 21.0374 6.4303 21.0374H16.1293C19.4772 21.0374 22.1912 18.4337 22.1912 15.222V5.91743C22.1912 2.70569 19.4772 0.102051 16.1293 0.102051ZM20.0696 15.222C20.0629 17.307 18.3026 18.9956 16.1293 19.002H6.4303C4.25693 18.9956 2.49673 17.307 2.49007 15.222V5.91743C2.49673 3.83244 4.25693 2.14382 6.4303 2.13743H16.1293C18.3026 2.14382 20.0629 3.83244 20.0696 5.91743V15.222ZM17.0386 6.2082C17.7082 6.2082 18.251 5.68746 18.251 5.04512C18.251 4.40278 17.7082 3.88205 17.0386 3.88205C16.369 3.88205 15.8262 4.40278 15.8262 5.04512C15.8262 5.68746 16.369 6.2082 17.0386 6.2082ZM11.2798 5.33589C8.26671 5.33589 5.82411 7.67916 5.82411 10.5697C5.82411 13.4603 8.26671 15.8036 11.2798 15.8036C14.2929 15.8036 16.7355 13.4603 16.7355 10.5697C16.7388 9.18067 16.165 7.84763 15.1411 6.86543C14.1173 5.88322 12.7278 5.3328 11.2798 5.33589ZM7.94577 10.5697C7.94577 12.3362 9.43845 13.7682 11.2798 13.7682C13.1212 13.7682 14.6139 12.3362 14.6139 10.5697C14.6139 8.80325 13.1212 7.37127 11.2798 7.37127C9.43845 7.37127 7.94577 8.80325 7.94577 10.5697Z" fill="#D8D8D8"/>
</svg>
