<svg width="25" height="25" viewBox="0 0 25 25" fill="none" xmlns="http://www.w3.org/2000/svg">
<g clip-path="url(#clip0_127_5)">
<path d="M19.1406 0H5.85938C2.62333 0 0 2.62333 0 5.85938V19.1406C0 22.3767 2.62333 25 5.85938 25H19.1406C22.3767 25 25 22.3767 25 19.1406V5.85938C25 2.62333 22.3767 0 19.1406 0Z" fill="#F0DB4F"/>
<path d="M6.57334 20.892L8.48643 19.7342C8.85557 20.3886 9.19131 20.9423 9.99668 20.9423C10.7687 20.9423 11.2554 20.6403 11.2554 19.4657V11.4776H13.6048V19.4989C13.6048 21.9322 12.1784 23.0398 10.0974 23.0398C8.21797 23.0398 7.12705 22.0665 6.57324 20.8918M14.8809 20.6402L16.7937 19.5327C17.2974 20.3551 17.9519 20.9592 19.1097 20.9592C20.0832 20.9592 20.7039 20.4725 20.7039 19.8012C20.7039 18.9957 20.0662 18.7104 18.9922 18.2406L18.405 17.9888C16.71 17.2673 15.5855 16.361 15.5855 14.4479C15.5855 12.6858 16.9281 11.3433 19.0259 11.3433C20.5194 11.3433 21.5935 11.8636 22.3653 13.2229L20.5361 14.3976C20.1333 13.676 19.6972 13.3907 19.0259 13.3907C18.3378 13.3907 17.9015 13.8271 17.9015 14.3976C17.9015 15.1023 18.3378 15.3877 19.3446 15.8241L19.9319 16.0758C21.9289 16.9317 23.0533 17.8042 23.0533 19.7676C23.0533 21.8822 21.392 23.04 19.1601 23.04C16.9785 23.04 15.5688 21.9996 14.8809 20.6402Z" fill="#323330"/>
</g>
<defs>
<clipPath id="clip0_127_5">
<rect width="25" height="25" fill="white"/>
</clipPath>
</defs>
</svg>
