<svg width="31" height="30" viewBox="0 0 31 30" fill="none" xmlns="http://www.w3.org/2000/svg">
<g filter="url(#filter0_d_75_424)">
<path fill-rule="evenodd" clip-rule="evenodd" d="M6.62631 0.102051C5.62194 0.102051 4.80774 0.883137 4.80774 1.84666V19.2928C4.80774 20.2563 5.62194 21.0374 6.62631 21.0374H24.812C25.8163 21.0374 26.6306 20.2563 26.6306 19.2928V1.84666C26.6306 0.883137 25.8163 0.102051 24.812 0.102051H6.62631ZM11.501 4.75751C11.5078 5.86971 10.64 6.55501 9.61025 6.55011C8.64015 6.5452 7.79452 5.80428 7.79963 4.75915C7.80475 3.77617 8.61458 2.98619 9.66652 3.00909C10.7338 3.03199 11.5078 3.78272 11.501 4.75751ZM16.0582 7.96649H13.0031H13.0014V17.9222H16.2304V17.69C16.2304 17.2481 16.23 16.8061 16.2297 16.3641C16.2287 15.1849 16.2276 14.0045 16.2339 12.8257C16.2356 12.5395 16.2492 12.2419 16.3259 11.9687C16.614 10.9481 17.5706 10.289 18.6378 10.451C19.3232 10.5539 19.7766 10.935 19.9676 11.555C20.0853 11.9425 20.1381 12.3596 20.1432 12.7636C20.1571 13.9821 20.1551 15.2005 20.1532 16.4191C20.1524 16.8492 20.1517 17.2795 20.1517 17.7096V17.9206H23.3911V17.6818C23.3911 17.1561 23.3908 16.6305 23.3905 16.1049C23.3899 14.7912 23.3891 13.4775 23.3928 12.1634C23.3945 11.5696 23.328 10.9841 23.1762 10.41C22.9495 9.55622 22.4807 8.84966 21.7186 8.33941C21.1781 7.97629 20.5848 7.74241 19.9216 7.71624C19.8461 7.71323 19.7699 7.70928 19.6934 7.70532C19.3543 7.68773 19.0097 7.66987 18.6855 7.73259C17.758 7.91087 16.9432 8.31813 16.3276 9.0361C16.2561 9.11844 16.1862 9.20207 16.0818 9.32687L16.0582 9.35513V7.96649ZM8.0589 17.9255H11.2727V7.97296H8.0589V17.9255Z" fill="#D8D8D8"/>
</g>
<defs>
<filter id="filter0_d_75_424" x="0.807739" y="0.102051" width="29.8228" height="28.9355" filterUnits="userSpaceOnUse" color-interpolation-filters="sRGB">
<feFlood flood-opacity="0" result="BackgroundImageFix"/>
<feColorMatrix in="SourceAlpha" type="matrix" values="0 0 0 0 0 0 0 0 0 0 0 0 0 0 0 0 0 0 127 0" result="hardAlpha"/>
<feOffset dy="4"/>
<feGaussianBlur stdDeviation="2"/>
<feComposite in2="hardAlpha" operator="out"/>
<feColorMatrix type="matrix" values="0 0 0 0 0 0 0 0 0 0 0 0 0 0 0 0 0 0 0.25 0"/>
<feBlend mode="normal" in2="BackgroundImageFix" result="effect1_dropShadow_75_424"/>
<feBlend mode="normal" in="SourceGraphic" in2="effect1_dropShadow_75_424" result="shape"/>
</filter>
</defs>
</svg>
