<svg width="25" height="25" viewBox="0 0 25 25" fill="none" xmlns="http://www.w3.org/2000/svg">
<path fill-rule="evenodd" clip-rule="evenodd" d="M16.0863 6.55176C16.3259 7.24453 16.4982 7.95176 16.555 8.68457C16.6253 9.59395 16.5933 10.4971 16.4015 11.3914L16.3769 11.4629C16.3167 11.4631 16.2554 11.4555 16.1966 11.4646C15.7 11.5428 15.2039 11.6236 14.7076 11.7041C14.1945 11.7873 13.681 11.8672 13.1689 11.9559C12.9875 11.9871 12.7628 11.9498 12.6896 12.2006L12.6544 12.2125L12.6792 10.7129L12.6541 7.09453L12.8931 7.05352C13.2839 6.98965 13.6748 6.92461 14.0662 6.8623C14.533 6.78828 15.0001 6.71602 15.4673 6.64375C15.6736 6.61211 15.88 6.58262 16.0863 6.55176Z" fill="#439934"/>
<path fill-rule="evenodd" clip-rule="evenodd" d="M12.1612 16.5843C11.909 16.3675 11.6481 16.1603 11.4065 15.9321C10.1061 14.7056 9.15472 13.2616 8.68617 11.5208C8.55706 11.0419 8.47113 10.555 8.44339 10.0601C8.42386 9.71357 8.39593 9.36416 8.42054 9.01943C8.48558 8.10283 8.6182 7.19502 8.88695 6.31201L8.90179 6.2915C8.92796 6.32627 8.96546 6.35713 8.97874 6.39639C9.24111 7.16904 9.50179 7.94241 9.76078 8.7165C10.575 11.1483 11.3883 13.5808 12.2039 16.0122C12.22 16.0597 12.2612 16.0985 12.2909 16.1413L12.1612 16.5843Z" fill="#45A538"/>
<path fill-rule="evenodd" clip-rule="evenodd" d="M16.0864 6.55156C15.8799 6.58223 15.6735 6.61191 15.4674 6.64355C15.0003 6.71582 14.5331 6.78809 14.0663 6.86211C13.6751 6.92422 13.2842 6.98926 12.8932 7.05332L12.6542 7.09434L12.6522 6.93848C12.6442 6.81035 12.6309 6.68223 12.6292 6.5541L12.6024 4.10215C12.5962 3.59063 12.5868 3.0791 12.5764 2.56777C12.5712 2.24996 12.562 1.93223 12.5489 1.61465C12.5411 1.44414 12.5135 1.27441 12.5026 1.10391C12.4962 1.00586 12.5047 0.907031 12.5069 0.808594C12.6288 1.04473 12.7481 1.28262 12.8733 1.51699C13.0712 1.8875 13.3866 2.16055 13.6708 2.4584C14.793 3.63633 15.5897 5.00508 16.0864 6.55156Z" fill="#46A037"/>
<path fill-rule="evenodd" clip-rule="evenodd" d="M12.6548 12.2124L12.6899 12.2004C12.7632 11.9497 12.9878 11.987 13.1692 11.9557C13.6813 11.867 14.1948 11.7872 14.7079 11.704C15.2042 11.6237 15.7003 11.5428 16.197 11.4645C16.2558 11.4553 16.3171 11.4629 16.3772 11.4627C16.2845 11.794 16.2114 12.1325 16.0937 12.4545C15.9599 12.8198 15.7981 13.1764 15.6265 13.526C15.3693 14.0474 15.0511 14.5363 14.6786 14.9827C14.3923 15.3268 14.0731 15.6454 13.7534 15.9596C13.5765 16.1332 13.3683 16.2749 13.1741 16.4311L13.1237 16.3967L12.9427 16.242L12.7554 15.8311C12.6275 15.3519 12.5576 14.859 12.5474 14.3631L12.5509 14.2795L12.5765 13.9174C12.5849 13.7938 12.5962 13.6704 12.6015 13.5467C12.6202 13.1022 12.637 12.6573 12.6548 12.2124Z" fill="#409433"/>
<path fill-rule="evenodd" clip-rule="evenodd" d="M12.6548 12.2121C12.6372 12.657 12.6204 13.1021 12.6015 13.5471C12.5962 13.6709 12.5851 13.7943 12.5765 13.9178L12.4624 13.9609C12.2089 13.2146 11.9552 12.4762 11.7071 11.7359C11.2968 10.5111 10.8915 9.28457 10.4817 8.05937C10.1508 7.07058 9.81764 6.08255 9.48213 5.09531C9.46631 5.04922 9.42139 5.01289 9.39014 4.97207L10.1206 3.62891C10.1458 3.67246 10.1788 3.71328 10.1946 3.76016C10.5325 4.76016 10.8698 5.76035 11.2042 6.76152C11.6394 8.06426 12.0716 9.36758 12.5063 10.6705C12.5237 10.7225 12.5522 10.7705 12.5796 10.8289L12.6796 10.7125L12.6548 12.2121Z" fill="#4FAA41"/>
<path fill-rule="evenodd" clip-rule="evenodd" d="M9.38989 4.97217C9.42134 5.01299 9.46626 5.04932 9.48188 5.09541C9.81743 6.08264 10.1506 7.07066 10.4815 8.05947C10.8913 9.28467 11.2965 10.5112 11.7069 11.736C11.9549 12.4763 12.2086 13.2146 12.4622 13.961L12.5762 13.9179L12.5506 14.28L12.5274 14.3634C12.4877 14.7597 12.4543 15.1567 12.4059 15.5522C12.3817 15.7505 12.3299 15.945 12.2907 16.1411C12.2612 16.0983 12.2198 16.0595 12.2038 16.012C11.3879 13.5806 10.5749 11.1481 9.7606 8.71631C9.50153 7.94239 9.24085 7.16902 8.97856 6.39619C8.96528 6.35693 8.92778 6.32607 8.90161 6.29131L9.38989 4.97217Z" fill="#4AA73C"/>
<path fill-rule="evenodd" clip-rule="evenodd" d="M12.6793 10.7128L12.5793 10.8292C12.552 10.7708 12.5235 10.7228 12.5061 10.6708C12.0713 9.36787 11.6391 8.06455 11.204 6.76182C10.8692 5.76077 10.5327 4.76031 10.1944 3.76045C10.1786 3.71357 10.1456 3.67275 10.1204 3.6292L11.0237 2.44092C11.0522 2.47881 11.0928 2.5126 11.1075 2.55537C11.3581 3.28975 11.6069 4.02471 11.854 4.76025C12.0848 5.44736 12.3122 6.13525 12.5458 6.82119C12.5614 6.86709 12.6159 6.89951 12.6522 6.93857L12.6542 7.09443L12.6793 10.7128Z" fill="#57AE47"/>
<path fill-rule="evenodd" clip-rule="evenodd" d="M12.6522 6.93828C12.6157 6.89941 12.5614 6.86699 12.5458 6.8209C12.3124 6.13496 12.0848 5.44707 11.854 4.75996C11.6069 4.02441 11.3581 3.28944 11.1075 2.55508C11.0928 2.5123 11.0522 2.47852 11.0237 2.44062C11.3174 2.15293 11.602 1.85488 11.9077 1.58047C12.1793 1.33672 12.3977 1.07539 12.4079 0.690039L12.4293 0.613281L12.5067 0.808203C12.5047 0.906641 12.4959 1.00547 12.5024 1.10352C12.5135 1.27402 12.5411 1.44375 12.5487 1.61426C12.5629 1.93164 12.5698 2.24961 12.5762 2.56738C12.5866 3.07871 12.5959 3.59023 12.6022 4.10176L12.629 6.55371C12.6309 6.68203 12.6444 6.81016 12.6522 6.93828Z" fill="#60B24F"/>
<path fill-rule="evenodd" clip-rule="evenodd" d="M12.2908 16.1411C12.33 15.945 12.3818 15.7505 12.406 15.5522C12.4544 15.1569 12.4878 14.7597 12.5275 14.3634L12.5375 14.3618L12.5472 14.3636C12.5575 14.8595 12.6273 15.3523 12.7552 15.8315C12.7289 15.8663 12.6919 15.897 12.6779 15.936C12.5695 16.2419 12.4671 16.5503 12.3582 16.856C12.3433 16.8978 12.3015 16.9304 12.2724 16.9669L12.1609 16.5841L12.2908 16.1411Z" fill="#A9AA88"/>
<path fill-rule="evenodd" clip-rule="evenodd" d="M12.2725 16.9669C12.3016 16.9302 12.3434 16.8978 12.3582 16.856C12.4672 16.5503 12.5695 16.2419 12.6779 15.936C12.6918 15.897 12.7289 15.8663 12.7553 15.8315L12.9426 16.2425C12.9057 16.2948 12.8545 16.3423 12.834 16.4007L12.4754 17.4538C12.4605 17.4962 12.4104 17.5259 12.3764 17.5616L12.2725 16.9669Z" fill="#B6B598"/>
<path fill-rule="evenodd" clip-rule="evenodd" d="M12.3765 17.5613C12.4103 17.5256 12.4606 17.4959 12.4755 17.4535L12.8341 16.4004C12.8544 16.342 12.9058 16.2945 12.9427 16.2422L13.1239 16.3967C13.0364 16.4832 12.9878 16.5832 13.0171 16.7096L12.962 16.8898C12.937 16.9207 12.9007 16.9477 12.8884 16.983C12.7632 17.3416 12.6438 17.7021 12.5177 18.0605C12.5017 18.1059 12.4573 18.1416 12.4263 18.1818L12.3765 17.5613Z" fill="#C2C1A7"/>
<path fill-rule="evenodd" clip-rule="evenodd" d="M12.4259 18.1816C12.4572 18.1414 12.5015 18.1057 12.5174 18.0604C12.6435 17.702 12.7631 17.3414 12.8881 16.9828C12.9004 16.9475 12.9367 16.9207 12.9617 16.8896L12.8857 17.717C12.8654 17.7404 12.8361 17.7609 12.8263 17.7881L12.5736 18.5123C12.5558 18.5617 12.5218 18.6059 12.4953 18.6521C12.4717 18.6213 12.4295 18.5914 12.4275 18.5594C12.4201 18.434 12.4254 18.3076 12.4259 18.1816Z" fill="#CECDB7"/>
<path fill-rule="evenodd" clip-rule="evenodd" d="M12.4956 18.6524C12.5222 18.6062 12.5562 18.562 12.5739 18.5126L12.8267 17.7884C12.8364 17.761 12.8659 17.7407 12.886 17.7173L12.888 18.2603L12.7062 18.7265L12.4956 18.6524Z" fill="#DBDAC7"/>
<path fill-rule="evenodd" clip-rule="evenodd" d="M12.7061 18.7265L12.8879 18.2603L12.9254 18.8118L12.7061 18.7265Z" fill="#EBE9DC"/>
<path fill-rule="evenodd" clip-rule="evenodd" d="M13.0168 16.7099C12.9877 16.5837 13.0361 16.4837 13.1236 16.397L13.174 16.4313L13.0168 16.7099Z" fill="#CECDB7"/>
<path fill-rule="evenodd" clip-rule="evenodd" d="M12.5473 14.3639L12.5375 14.3621L12.5276 14.3637L12.5508 14.2803L12.5473 14.3639Z" fill="#4FAA41"/>
</svg>
