<svg width="25" height="25" viewBox="0 0 25 25" fill="none" xmlns="http://www.w3.org/2000/svg">
<g clip-path="url(#clip0_75_326)">
<path d="M12.5 25C19.4036 25 25 19.4036 25 12.5C25 5.59644 19.4036 0 12.5 0C5.59644 0 0 5.59644 0 12.5C0 19.4036 5.59644 25 12.5 25Z" fill="black"/>
<path d="M20.765 21.8777L9.60293 7.5H7.5V17.4959H9.18242V9.63652L19.4441 22.8951C19.9066 22.5858 20.3479 22.2459 20.765 21.8777Z" fill="url(#paint0_linear_75_326)"/>
<path d="M15.9722 7.5H17.6388V17.5H15.9722V7.5Z" fill="url(#paint1_linear_75_326)"/>
</g>
<defs>
<linearGradient id="paint0_linear_75_326" x1="15.1389" y1="16.1805" x2="20.0694" y2="22.2916" gradientUnits="userSpaceOnUse">
<stop stop-color="white"/>
<stop offset="1" stop-color="white" stop-opacity="0"/>
</linearGradient>
<linearGradient id="paint1_linear_75_326" x1="16.8054" y1="7.49999" x2="16.7775" y2="14.8437" gradientUnits="userSpaceOnUse">
<stop stop-color="white"/>
<stop offset="1" stop-color="white" stop-opacity="0"/>
</linearGradient>
<clipPath id="clip0_75_326">
<rect width="25" height="25" fill="white"/>
</clipPath>
</defs>
</svg>
