<svg width="22" height="24" viewBox="0 0 22 24" fill="none" xmlns="http://www.w3.org/2000/svg">
<g clip-path="url(#clip0_75_403)">
<path d="M19.442 4.88731C15.8414 -0.199191 9.14226 -1.13819 4.47947 2.7905C-0.182643 6.71918 -1.04253 14.0274 2.55876 19.1133C6.16075 24.1991 12.8604 25.1366 17.5219 21.2071C22.1821 17.2784 23.0421 9.9725 19.442 4.88731Z" fill="#F37036"/>
<path d="M15.654 4.53097C15.2868 4.56301 14.9386 4.72241 14.6604 4.98585C14.3348 5.2943 14.127 5.72467 14.078 6.19204C14.029 6.65941 14.1424 7.12985 14.3957 7.51053C14.6488 7.89129 15.0235 8.15476 15.4459 8.249C15.8683 8.34323 16.3077 8.26138 16.6775 8.0196H16.6779L16.7047 8.04885C16.8265 7.97272 16.9398 7.88149 17.0424 7.77697C17.359 7.41171 17.5331 6.9266 17.5281 6.42396C17.5231 5.92133 17.3394 5.44046 17.0156 5.08278V5.08241L15.4955 6.73035L15.4687 6.70128L16.9888 5.0526C16.8128 4.86755 16.6028 4.72539 16.3727 4.63553C16.1426 4.54567 15.8976 4.51016 15.654 4.53135V4.53097ZM13.6527 7.22853C12.9239 7.22722 11.7341 8.12835 8.82868 11.2978L8.84312 11.314C8.82731 11.308 8.81133 11.3074 8.81133 11.3074L7.71751 12.4902C7.68942 12.5193 7.67083 12.5577 7.66456 12.5994C7.6583 12.6411 7.6647 12.684 7.68279 12.7214C7.70089 12.7588 7.72969 12.7887 7.76481 12.8066C7.79993 12.8245 7.83945 12.8294 7.87736 12.8205L9.7532 12.384C9.76155 12.3756 9.76711 12.3644 9.76901 12.3522L9.81061 12.399L9.17123 13.0909H9.14029L5.34426 17.2647L6.56217 18.5442C6.59618 18.5778 6.63915 18.5986 6.6848 18.6036C6.73045 18.6086 6.77638 18.5976 6.81586 18.5721C6.85566 18.5468 6.88754 18.509 6.90732 18.4637C6.9271 18.4183 6.93386 18.3675 6.92672 18.3178L6.74882 17.4741C6.73764 17.4572 6.73162 17.4368 6.73162 17.416C6.73162 17.3951 6.73764 17.3748 6.74882 17.3578C8.41155 16.4931 9.9578 15.3838 11.3444 14.061L10.565 13.2103L10.5797 13.2077L10.1174 12.7035L10.147 12.6709L10.1782 12.7058L10.1621 12.7228L11.3888 14.0903V14.0897C13.74 11.6608 15.4089 9.70841 14.9749 8.39441C14.9552 8.23727 14.8883 8.0917 14.7847 7.98041V7.98116C14.7583 7.9599 14.7305 7.94072 14.7017 7.92378C14.6874 7.90728 14.6748 7.89041 14.6597 7.87428L14.6484 7.88666C14.6164 7.8656 14.583 7.84742 14.5483 7.83228L14.598 7.77753C14.2893 7.47753 14.0343 7.22928 13.6527 7.22816V7.22853ZM5.31779 17.2896L4.42903 18.2593V18.2601C4.39714 18.2816 4.37235 18.3137 4.35823 18.3516C4.34411 18.3895 4.3414 18.4313 4.35048 18.471C4.35925 18.5107 4.37927 18.5464 4.40769 18.5729C4.43611 18.5995 4.47148 18.6156 4.50878 18.619L6.68678 18.783L5.31779 17.2896Z" fill="white"/>
<path d="M15.8039 4.37061C15.3051 4.36999 14.8261 4.58349 14.4703 4.96498C14.2173 5.24757 14.044 5.60355 13.9712 5.99053C13.8984 6.37751 13.929 6.77917 14.0596 7.14767C13.2447 6.76704 12.1423 7.43079 8.71322 11.1709C8.71083 11.1766 8.70871 11.1825 8.70686 11.1885C8.69981 11.1919 8.69298 11.1957 8.68641 11.2001L7.60205 12.3934C7.55008 12.449 7.51594 12.5215 7.5047 12.6C7.49346 12.6785 7.50572 12.7588 7.53966 12.8291C7.56993 12.8847 7.61283 12.931 7.66421 12.9633C7.7156 12.9956 7.77374 13.0129 7.83305 13.0136L7.88685 12.9755L9.33472 12.6386L8.64207 13.4012C8.63815 13.4112 8.63504 13.4216 8.63278 13.4323L5.23825 17.1446C5.22473 17.157 5.21352 17.1722 5.20525 17.1892L4.3311 18.1436C4.28758 18.1938 4.25785 18.2563 4.24527 18.324C4.23269 18.3917 4.23777 18.4619 4.25994 18.5267C4.28282 18.5909 4.32149 18.6471 4.3717 18.6889C4.42191 18.7307 4.48172 18.7567 4.54457 18.7639L6.71328 18.9289C6.75034 18.9148 6.78188 18.8874 6.80266 18.851C6.82121 18.8227 6.83118 18.7888 6.83118 18.754C6.83118 18.7192 6.82121 18.6853 6.80266 18.657L6.79819 18.6523C6.84511 18.6257 6.88639 18.5886 6.91936 18.5435C6.95416 18.4942 6.97847 18.4371 6.99054 18.3762C7.00261 18.3154 7.00213 18.2524 6.98914 18.1918L6.82002 17.4067C8.44261 16.5608 9.9629 15.4989 11.3462 14.2453C11.3595 14.2538 11.3739 14.2603 11.3888 14.2646C11.4325 14.261 11.4734 14.2406 11.5043 14.2069C13.8332 11.8012 15.2022 10.1527 15.2022 8.84398C15.2074 8.66243 15.1823 8.48137 15.1281 8.30961C15.338 8.40438 15.5619 8.45709 15.789 8.46523L15.7864 8.46598C16.0992 8.45569 16.4049 8.36237 16.6772 8.19411L16.6779 8.19429C16.7132 8.20572 16.7511 8.20203 16.784 8.18398C16.9154 8.09957 17.0351 7.99528 17.1397 7.87423C17.317 7.68453 17.4578 7.45819 17.554 7.20843C17.6501 6.95866 17.6997 6.6905 17.6997 6.41961C17.6997 6.14873 17.6502 5.88057 17.5541 5.63081C17.4579 5.38105 17.3171 5.1547 17.1399 4.96498C17.1335 4.95875 17.1268 4.95305 17.1196 4.94792C16.7658 4.5774 16.2942 4.37059 15.8038 4.37079L15.8039 4.37061ZM15.789 4.70286C16.1363 4.70512 16.4734 4.83114 16.7491 5.06173L15.3624 6.58367C15.3577 6.58949 15.3533 6.59563 15.3493 6.60204C15.3243 6.62963 15.3097 6.66641 15.3082 6.70517C15.3082 6.72859 15.313 6.75171 15.3224 6.77282C15.3317 6.79392 15.3452 6.81246 15.362 6.82704H15.3624L16.4108 7.97079C16.1238 8.10742 15.8057 8.14627 15.4982 8.08227C15.1906 8.01826 14.908 7.85438 14.6873 7.61211C14.2428 7.12461 14.1139 6.39261 14.3516 5.75754C14.5893 5.12192 15.156 4.70661 15.789 4.70286ZM17.0127 5.34636C17.2395 5.64562 17.3631 6.02198 17.3621 6.41023C17.3615 6.86507 17.1953 7.30101 16.9001 7.62223C16.841 7.68297 16.7779 7.73904 16.7114 7.79004L15.8653 6.88123L15.6998 6.70067L15.7453 6.65098L17.0126 5.34598L17.0127 5.34636ZM16.9498 6.13254C16.9187 6.12187 16.8851 6.12394 16.8553 6.13836C16.8258 6.155 16.8035 6.18372 16.7934 6.21823C16.7884 6.23546 16.7866 6.25359 16.7881 6.27158C16.7896 6.28956 16.7943 6.30706 16.802 6.32304C16.8325 6.39311 16.8445 6.47105 16.8367 6.54813C16.8289 6.62521 16.8016 6.69841 16.7578 6.75954C16.7466 6.77134 16.7378 6.7856 16.7321 6.80137C16.7263 6.81714 16.7236 6.83407 16.7243 6.85104C16.725 6.88554 16.7363 6.91854 16.7578 6.94329C16.7807 6.95284 16.8061 6.95284 16.829 6.94329C16.8497 6.94892 16.8713 6.94828 16.8917 6.94144C16.912 6.9346 16.9303 6.92182 16.9445 6.90448C17.0177 6.80668 17.064 6.68828 17.0782 6.56297C17.0923 6.43766 17.0737 6.31055 17.0244 6.19629V6.19704C17.0076 6.16631 16.9811 6.14337 16.9498 6.13254ZM13.6366 7.39311C13.844 7.40083 14.0435 7.48146 14.2055 7.62298C14.0311 7.65042 13.8695 7.73854 13.7447 7.87423L9.82474 12.1314L9.05543 11.2922C11.0884 9.08492 12.3314 7.93198 13.1041 7.55417C13.2633 7.4448 13.4485 7.38892 13.6366 7.39311ZM14.3181 7.94811C14.4497 7.94822 14.5759 8.0051 14.6692 8.10636C14.7187 8.15723 14.7578 8.21898 14.7838 8.28753C14.8099 8.35608 14.8223 8.42987 14.8203 8.50404C14.818 8.57796 14.8018 8.65057 14.7727 8.71735C14.7436 8.78413 14.7021 8.84364 14.651 8.89217L10.483 12.8495L10.0332 12.3589L13.9669 8.10636C14.0603 8.00517 14.1865 7.94817 14.3181 7.94811ZM14.8327 9.20398C14.5422 10.4606 13.0027 12.1633 11.3974 13.8178L10.7482 13.1104L14.8327 9.20398ZM8.82872 11.54L8.87582 11.5907L9.47961 12.2494L7.82446 12.6356L8.82872 11.54ZM9.82439 12.635L9.82508 12.6358L10.0258 12.8599L10.0289 12.8756L10.0423 12.8779L10.085 12.9255L10.2259 13.083L9.30035 13.2067L9.82439 12.635ZM10.489 13.3993L11.104 14.0698C9.74417 15.3033 8.25195 16.352 6.66018 17.1928C6.6085 17.2196 6.56694 17.2652 6.54259 17.3217C6.51824 17.3782 6.5126 17.4422 6.52663 17.5027L6.70452 18.3465C6.71108 18.3564 6.71461 18.3683 6.71461 18.3805C6.71461 18.3927 6.71108 18.4046 6.70452 18.4145C6.69474 18.4241 6.68207 18.4294 6.66894 18.4294C6.65581 18.4294 6.64314 18.4241 6.63336 18.4145L5.58458 17.261L8.81721 13.6828L10.489 13.3993ZM5.3443 17.513L5.49366 17.6657L6.26572 18.5079L4.54422 18.3864L5.3443 17.513Z" fill="#F37036"/>
</g>
<defs>
<clipPath id="clip0_75_403">
<rect width="22" height="24" fill="white"/>
</clipPath>
</defs>
</svg>
