<svg width="32" height="32" viewBox="0 0 32 32" fill="none" xmlns="http://www.w3.org/2000/svg">
<path d="M16 18.4741C17.3807 18.4741 18.5 17.3548 18.5 15.9741C18.5 14.5934 17.3807 13.4741 16 13.4741C14.6193 13.4741 13.5 14.5934 13.5 15.9741C13.5 17.3548 14.6193 18.4741 16 18.4741Z" fill="#00D8FF"/>
<path d="M16 21.7062C12.9951 21.7786 9.99785 21.3736 7.12 20.5062C5.79062 20.0848 4.55073 19.4209 3.463 18.5482C3.04779 18.2502 2.70202 17.8658 2.44948 17.4215C2.19693 16.9771 2.04359 16.4834 2 15.9742C2 14.3212 3.816 12.7012 6.858 11.6412C9.81291 10.7027 12.9 10.2475 16 10.2932C19.0587 10.2509 22.1044 10.6978 25.022 11.6172C26.3021 12.0258 27.4999 12.6575 28.56 13.4832C28.9675 13.7679 29.3077 14.1384 29.5565 14.5688C29.8053 14.9992 29.9567 15.4789 30 15.9742C30 17.6922 27.97 19.4332 24.7 20.5152C21.8779 21.3545 18.9438 21.7562 16 21.7062ZM16 11.4892C13.0342 11.4504 10.081 11.8831 7.251 12.7712C4.451 13.7482 3.196 15.0842 3.196 15.9712C3.196 16.8992 4.545 18.3582 7.507 19.3712C10.26 20.1972 13.1266 20.5816 16 20.5102C18.8164 20.5605 21.6239 20.1794 24.325 19.3802C27.4 18.3612 28.8 16.9002 28.8 15.9742C28.7494 15.6564 28.6335 15.3527 28.4597 15.0819C28.2858 14.8112 28.0578 14.5794 27.79 14.4012C26.8417 13.6684 25.7717 13.1085 24.629 12.7472C21.8379 11.8716 18.9249 11.4469 16 11.4892Z" fill="#00D8FF"/>
<path d="M10.3201 28.443C9.8536 28.4537 9.39262 28.3405 8.9841 28.115C7.5521 27.289 7.0561 24.907 7.6571 21.742C8.3205 18.7133 9.46861 15.8117 11.0571 13.149C12.5482 10.4783 14.4566 8.06321 16.7101 5.99501C17.7036 5.09012 18.8492 4.36801 20.0941 3.86201C20.5446 3.65155 21.0358 3.54248 21.5331 3.54248C22.0304 3.54248 22.5216 3.65155 22.9721 3.86201C24.4611 4.72001 24.9541 7.34801 24.2591 10.721C23.5761 13.5856 22.4577 16.3285 20.9431 18.854C19.5046 21.4932 17.6563 23.8874 15.4671 25.947C14.4379 26.8878 13.2434 27.63 11.9441 28.136C11.4241 28.3296 10.8749 28.4334 10.3201 28.443ZM12.0931 13.743C10.578 16.2927 9.47761 19.067 8.8331 21.962C8.2801 24.877 8.8111 26.63 9.5831 27.076C10.3831 27.539 12.3251 27.1 14.6831 25.04C16.7732 23.0671 18.5375 20.7753 19.9101 18.25C21.361 15.8355 22.4338 13.2132 23.0911 10.474C23.7451 7.29901 23.1801 5.35501 22.3781 4.89301C22.0775 4.77802 21.7563 4.72656 21.4348 4.74188C21.1133 4.7572 20.7984 4.83896 20.5101 4.98201C19.4018 5.43947 18.3829 6.08874 17.5001 6.90001C15.3472 8.88122 13.5243 11.1933 12.1001 13.749L12.0931 13.743Z" fill="#00D8FF"/>
<path d="M21.6769 28.456C20.3219 28.456 18.6009 27.636 16.8089 26.095C14.5162 24.0077 12.5755 21.5639 11.0619 18.858C9.49303 16.2322 8.35399 13.3724 7.68793 10.387C7.39974 9.0734 7.34625 7.71919 7.52993 6.38698C7.57311 5.89294 7.72385 5.41433 7.97157 4.98471C8.21929 4.55509 8.55799 4.18486 8.96393 3.89998C10.4509 3.03898 12.9739 3.92398 15.5489 6.20998C17.6895 8.23216 19.5073 10.5707 20.9389 13.144C22.507 15.7084 23.658 18.5056 24.3489 21.431C24.65 22.7927 24.6965 24.1984 24.4859 25.577C24.436 26.0854 24.2767 26.5771 24.0188 27.0181C23.7609 27.4591 23.4106 27.8391 22.9919 28.132C22.5899 28.3542 22.1362 28.466 21.6769 28.456ZM12.0969 18.256C13.5491 20.8419 15.4029 23.1807 17.5889 25.185C19.8379 27.12 21.6219 27.536 22.3889 27.085C23.1889 26.62 23.7789 24.722 23.1709 21.651C22.505 18.8579 21.401 16.1878 19.8999 13.74C18.5338 11.2771 16.7987 9.03784 14.7549 7.09998C12.3309 4.94798 10.3649 4.46698 9.56393 4.93098C9.31441 5.13398 9.10963 5.38645 8.96248 5.67249C8.81533 5.95853 8.729 6.27194 8.70893 6.59298C8.55006 7.78107 8.60185 8.98787 8.86193 10.158C9.50281 13.0129 10.5952 15.7473 12.0979 18.258L12.0969 18.256Z" fill="#00D8FF"/>
</svg>
