<svg width="25" height="25" viewBox="0 0 25 25" fill="none" xmlns="http://www.w3.org/2000/svg">
<path d="M6.68896 11.9187C8.55477 12.5738 10.5228 12.8895 12.4999 12.8508C14.477 12.8892 16.4451 12.5733 18.3108 11.918C19.7671 11.35 20.2835 10.7188 20.2835 10.3555V7.57812C19.7742 7.91883 19.228 8.20083 18.6554 8.41875C16.6815 9.12543 14.5962 9.47002 12.4999 9.43594C10.4038 9.46881 8.31886 9.12481 6.34443 8.42031C5.77142 8.20252 5.22517 7.91995 4.71631 7.57812V10.3516C4.71631 10.7219 5.23428 11.35 6.68896 11.9187ZM6.68896 17.157C7.34802 17.4084 8.02765 17.6021 8.72021 17.7359C9.96563 17.9764 11.2315 18.0949 12.4999 18.0898C13.7683 18.0951 15.0341 17.9769 16.2796 17.7367C16.9721 17.6029 17.6518 17.4092 18.3108 17.1578C19.7671 16.5898 20.2835 15.9586 20.2835 15.5953V12.9469C19.8627 13.2001 19.4203 13.4158 18.9616 13.5914C16.888 14.3254 14.6993 14.6808 12.4999 14.6406C10.3003 14.6796 8.1116 14.3229 6.03818 13.5875C5.57995 13.4108 5.13771 13.1952 4.71631 12.943V15.5937C4.71631 15.9578 5.23428 16.5867 6.68896 17.157ZM12.4999 23.4375C16.7968 23.4375 20.2835 22.075 20.2835 20.3953V18.1789C19.9006 18.4097 19.4996 18.6088 19.0843 18.7742L18.9616 18.8234C16.8884 19.5596 14.6996 19.9171 12.4999 19.8789C10.3 19.9188 8.11102 19.5612 6.03818 18.8234L5.91553 18.7742C5.50023 18.6088 5.09916 18.4097 4.71631 18.1789V20.3953C4.71631 22.075 8.20303 23.4375 12.4999 23.4375Z" fill="#FFDA44"/>
<path d="M12.4999 7.64687C16.7987 7.64687 20.2835 6.28484 20.2835 4.60469C20.2835 2.92453 16.7987 1.5625 12.4999 1.5625C8.20114 1.5625 4.71631 2.92453 4.71631 4.60469C4.71631 6.28484 8.20114 7.64687 12.4999 7.64687Z" fill="#FFDA44"/>
</svg>
