<svg width="25" height="26" viewBox="0 0 25 26" fill="none" xmlns="http://www.w3.org/2000/svg">
<g clip-path="url(#clip0_75_330)">
<path d="M12.5007 5.2002C9.16733 5.2002 7.08472 6.93285 6.25073 10.3996C7.50034 8.66673 8.95913 8.01693 10.6253 8.4502C11.5767 8.69679 12.2566 9.41423 13.0095 10.2093C14.2349 11.5026 15.6533 12.9998 18.7507 12.9998C22.0839 12.9998 24.1667 11.2669 25.0007 7.79938C23.7507 9.53312 22.2925 10.1833 20.6259 9.74979C19.6748 9.50299 18.9957 8.78576 18.2417 7.99073C17.0171 6.69743 15.5992 5.2002 12.5007 5.2002ZM6.25073 12.9998C2.91753 12.9998 0.834717 14.7326 0.000732422 18.2002C1.2506 16.4665 2.70881 15.8163 4.37534 16.2498C5.32671 16.4966 6.00659 17.2138 6.75952 18.0089C7.98491 19.3021 9.40327 20.7994 12.5007 20.7994C15.8339 20.7994 17.9167 19.0667 18.7507 15.6C17.5007 17.3329 16.0425 17.9827 14.3759 17.5494C13.4248 17.3028 12.7457 16.5854 11.9917 15.7903C10.7671 14.497 9.34917 12.9998 6.25073 12.9998Z" fill="#38BDF8"/>
</g>
<defs>
<clipPath id="clip0_75_330">
<rect width="25" height="26" fill="white"/>
</clipPath>
</defs>
</svg>
