<svg width="25" height="25" viewBox="0 0 25 25" fill="none" xmlns="http://www.w3.org/2000/svg">
<g clip-path="url(#clip0_75_392)">
<mask id="mask0_75_392" style="mask-type:alpha" maskUnits="userSpaceOnUse" x="-1" y="0" width="26" height="25">
<path fill-rule="evenodd" clip-rule="evenodd" d="M17.7279 24.8294C17.9268 24.907 18.1396 24.9427 18.3529 24.9345C18.5663 24.9263 18.7757 24.8743 18.9681 24.7818L24.1152 22.305C24.3802 22.1774 24.6039 21.9776 24.7604 21.7285C24.917 21.4794 25 21.1912 24.9999 20.897V4.10344C25 3.80923 24.917 3.52097 24.7605 3.27185C24.604 3.02272 24.3803 2.82285 24.1152 2.69524L18.9681 0.218869C18.6773 0.0789291 18.3501 0.0328541 18.0319 0.0870212C17.7138 0.141188 17.4203 0.292919 17.1921 0.521213L7.33862 9.51067L3.04682 6.25266C2.85319 6.10573 2.61425 6.0312 2.37142 6.04197C2.12859 6.05274 1.89719 6.14815 1.71733 6.31164L0.340768 7.56379C0.233493 7.66136 0.147763 7.78025 0.0890639 7.91285C0.0303648 8.04544 -1.14671e-05 8.18883 -0.000121769 8.33384C-0.000232071 8.47885 0.0299261 8.62229 0.0884234 8.75498C0.146921 8.88767 0.232469 9.00668 0.339596 9.10442L4.06167 12.5001L0.339792 15.896C0.232723 15.9938 0.147226 16.1128 0.0887646 16.2454C0.0303036 16.3781 0.000165091 16.5215 0.000275381 16.6665C0.000385671 16.8115 0.0307424 16.9548 0.0894051 17.0874C0.148068 17.22 0.233746 17.3389 0.340964 17.4364L1.71753 18.6886C1.89736 18.8521 2.12875 18.9476 2.37158 18.9584C2.61441 18.9692 2.85336 18.8947 3.04702 18.7478L7.33882 15.49L17.1923 24.4792C17.3448 24.6317 17.527 24.7509 17.7279 24.8294ZM18.7537 6.82492L11.2773 12.5001L18.7539 18.1755L18.7537 6.82492Z" fill="white"/>
</mask>
<g mask="url(#mask0_75_392)">
<path d="M24.1155 2.6991L18.9643 0.218635C18.6734 0.0785154 18.3461 0.032343 18.0277 0.086514C17.7094 0.140685 17.4158 0.292518 17.1876 0.520979L0.324664 15.8958C0.217515 15.9935 0.131946 16.1125 0.0734328 16.2452C0.01492 16.3778 -0.0152467 16.5213 -0.0151364 16.6663C-0.0150261 16.8113 0.0153588 16.9546 0.0740734 17.0872C0.132788 17.2198 0.218538 17.3387 0.325836 17.4362L1.70318 18.6884C1.88307 18.8521 2.11462 18.9476 2.35762 18.9585C2.60062 18.9693 2.83973 18.8946 3.03345 18.7475L23.3403 3.34227C24.0215 2.82547 25.0001 3.31141 25.0001 4.16649V4.10672C25.0001 3.81259 24.9171 3.52444 24.7606 3.27539C24.6041 3.02634 24.3805 2.82672 24.1155 2.6991Z" fill="#0065A9"/>
<g filter="url(#filter0_d_75_392)">
<path d="M24.1154 22.3006L18.9642 24.7807C18.6733 24.9209 18.346 24.9671 18.0277 24.913C17.7093 24.8589 17.4157 24.7071 17.1874 24.4787L0.324542 9.10374C0.217393 9.00605 0.131823 8.88705 0.0733107 8.75438C0.0147979 8.6217 -0.0153688 8.47827 -0.0152585 8.33327C-0.0151482 8.18827 0.0152368 8.04488 0.0739513 7.9123C0.132666 7.77972 0.218416 7.66085 0.325714 7.56332L1.70306 6.31117C1.88295 6.14744 2.11449 6.05188 2.35749 6.04107C2.6005 6.03026 2.83961 6.10488 3.03333 6.25199L23.3402 21.6571C24.0214 22.1741 24.9999 21.6881 24.9999 20.833V20.8928C24.9999 21.1869 24.9169 21.4751 24.7604 21.7241C24.604 21.9732 24.3804 22.173 24.1154 22.3006Z" fill="#007ACC"/>
</g>
<g filter="url(#filter1_d_75_392)">
<path d="M18.9645 24.7815C18.6734 24.9214 18.3461 24.9674 18.0278 24.9132C17.7095 24.859 17.4159 24.7073 17.1875 24.479C17.7641 25.0555 18.75 24.6471 18.75 23.8317V1.16784C18.75 0.352407 17.7641 -0.0559913 17.1875 0.520767C17.4159 0.292483 17.7095 0.140761 18.0278 0.0865648C18.3461 0.0323691 18.6734 0.0783758 18.9645 0.218227L24.1146 2.69518C24.3799 2.82271 24.6037 3.02255 24.7603 3.27168C24.9169 3.52081 25 3.80911 25 4.10338V20.8967C25 21.191 24.9169 21.4793 24.7603 21.7284C24.6037 21.9776 24.3799 22.1774 24.1146 22.3049L18.9645 24.7815Z" fill="#1F9CF0"/>
</g>
<path opacity="0.25" fill-rule="evenodd" clip-rule="evenodd" d="M17.7128 24.8294C17.9118 24.9069 18.1245 24.9427 18.3378 24.9345C18.5511 24.9263 18.7605 24.8743 18.9529 24.7818L24.1 22.305C24.365 22.1774 24.5887 21.9775 24.7453 21.7284C24.9018 21.4793 24.9848 21.191 24.9847 20.8968V4.10344C24.9848 3.80922 24.9018 3.52097 24.7453 3.27185C24.5887 3.02272 24.365 2.82285 24.1 2.69524L18.9529 0.218869C18.662 0.0789291 18.3349 0.0328542 18.0167 0.0870212C17.6985 0.141188 17.4051 0.292919 17.1769 0.521213L7.32339 9.51066L3.03159 6.25285C2.83796 6.10593 2.59902 6.03139 2.35619 6.04216C2.11336 6.05294 1.88196 6.14834 1.7021 6.31184L0.325537 7.56399C0.218288 7.66157 0.132582 7.78046 0.0739006 7.91306C0.0152187 8.04566 -0.0151482 8.18904 -0.0152585 8.33404C-0.0153688 8.47904 0.0147799 8.62247 0.07326 8.75515C0.13174 8.88784 0.217265 9.00686 0.324365 9.10461L4.04644 12.5001L0.32456 15.8958C0.217433 15.9936 0.131885 16.1126 0.0733873 16.2453C0.01489 16.3779 -0.0152682 16.5214 -0.0151579 16.6664C-0.0150476 16.8114 0.0153287 16.9548 0.0740279 17.0874C0.132727 17.22 0.218456 17.3389 0.325732 17.4364L1.70229 18.6886C1.88213 18.8521 2.11352 18.9476 2.35635 18.9584C2.59918 18.9692 2.83813 18.8947 3.03179 18.7478L7.32378 15.4898L17.1773 24.4792C17.3297 24.6316 17.5121 24.7509 17.7128 24.8294ZM18.7386 6.82473L11.2621 12.5001L18.7386 18.1753V6.82473Z" fill="url(#paint0_linear_75_392)"/>
</g>
</g>
<defs>
<filter id="filter0_d_75_392" x="-8.34926" y="-2.29396" width="41.6831" height="35.563" filterUnits="userSpaceOnUse" color-interpolation-filters="sRGB">
<feFlood flood-opacity="0" result="BackgroundImageFix"/>
<feColorMatrix in="SourceAlpha" type="matrix" values="0 0 0 0 0 0 0 0 0 0 0 0 0 0 0 0 0 0 127 0" result="hardAlpha"/>
<feOffset/>
<feGaussianBlur stdDeviation="4.167"/>
<feColorMatrix type="matrix" values="0 0 0 0 0 0 0 0 0 0 0 0 0 0 0 0 0 0 0.25 0"/>
<feBlend mode="overlay" in2="BackgroundImageFix" result="effect1_dropShadow_75_392"/>
<feBlend mode="normal" in="SourceGraphic" in2="effect1_dropShadow_75_392" result="shape"/>
</filter>
<filter id="filter1_d_75_392" x="8.8535" y="-8.26955" width="24.4805" height="41.5386" filterUnits="userSpaceOnUse" color-interpolation-filters="sRGB">
<feFlood flood-opacity="0" result="BackgroundImageFix"/>
<feColorMatrix in="SourceAlpha" type="matrix" values="0 0 0 0 0 0 0 0 0 0 0 0 0 0 0 0 0 0 127 0" result="hardAlpha"/>
<feOffset/>
<feGaussianBlur stdDeviation="4.167"/>
<feColorMatrix type="matrix" values="0 0 0 0 0 0 0 0 0 0 0 0 0 0 0 0 0 0 0.25 0"/>
<feBlend mode="overlay" in2="BackgroundImageFix" result="effect1_dropShadow_75_392"/>
<feBlend mode="normal" in="SourceGraphic" in2="effect1_dropShadow_75_392" result="shape"/>
</filter>
<linearGradient id="paint0_linear_75_392" x1="12.4847" y1="0.0645725" x2="12.4847" y2="24.9357" gradientUnits="userSpaceOnUse">
<stop stop-color="white"/>
<stop offset="1" stop-color="white" stop-opacity="0"/>
</linearGradient>
<clipPath id="clip0_75_392">
<rect width="25" height="25" fill="white"/>
</clipPath>
</defs>
</svg>
