<svg width="25" height="25" viewBox="0 0 25 25" fill="none" xmlns="http://www.w3.org/2000/svg">
<g clip-path="url(#clip0_75_388)">
<path d="M19.1406 0H5.85938C2.62333 0 0 2.62333 0 5.85938V19.1406C0 22.3767 2.62333 25 5.85938 25H19.1406C22.3767 25 25 22.3767 25 19.1406V5.85938C25 2.62333 22.3767 0 19.1406 0Z" fill="#4353FF"/>
<path d="M16.5142 10.1012C16.5142 10.1012 15.165 14.3279 15.0653 14.6868C15.0255 14.3346 14.0419 6.73828 14.0419 6.73828C11.7424 6.73828 10.5195 8.37314 9.86816 10.1012C9.86816 10.1012 8.22666 14.3412 8.09375 14.6935C8.08711 14.3611 7.84121 10.141 7.84121 10.141C7.70156 8.0209 5.76758 6.73828 4.19922 6.73828L6.08672 18.2424C8.49248 18.2357 9.78848 16.6075 10.4663 14.8729C10.4663 14.8729 11.9085 11.1312 11.9684 10.9651C11.9816 11.1246 13.0051 18.2424 13.0051 18.2424C15.4176 18.2424 16.7202 16.7205 17.418 15.0523L20.8008 6.73828C18.4148 6.73828 17.1588 8.3665 16.5142 10.1012Z" fill="white"/>
</g>
<defs>
<clipPath id="clip0_75_388">
<rect width="25" height="25" fill="white"/>
</clipPath>
</defs>
</svg>
