<svg width="25" height="18" viewBox="0 0 25 18" fill="none" xmlns="http://www.w3.org/2000/svg">
<path d="M24.4975 3.35296C24.357 2.85448 24.0824 2.39988 23.7009 2.03442C23.3195 1.66895 22.8446 1.40535 22.3235 1.26987C20.3913 0.76266 12.6613 0.754403 12.6613 0.754403C12.6613 0.754403 4.93256 0.746146 2.99914 1.23094C2.47836 1.37266 2.00444 1.63998 1.62287 2.00725C1.2413 2.37451 0.964888 2.82938 0.820177 3.32819C0.310601 5.17537 0.305666 9.00655 0.305666 9.00655C0.305666 9.00655 0.300731 12.8566 0.806605 14.6849C1.09039 15.6958 1.92323 16.4944 2.98186 16.7668C4.9338 17.274 12.6428 17.2823 12.6428 17.2823C12.6428 17.2823 20.3728 17.2906 22.305 16.8069C22.8263 16.6717 23.3016 16.4087 23.684 16.044C24.0664 15.6793 24.3426 15.2254 24.4852 14.7274C24.996 12.8814 24.9997 9.05138 24.9997 9.05138C24.9997 9.05138 25.0244 5.20014 24.4975 3.35296ZM10.1887 12.5558L10.1949 5.47851L16.6195 9.02307L10.1887 12.5558Z" fill="#D8D8D8"/>
</svg>
